<svg id="Layer_35" enable-background="new 0 0 64 64" height="512" viewBox="0 0 64 64" width="512" xmlns="http://www.w3.org/2000/svg"><g fill="#f0bc5e"><path d="m55 54h-46c-1.657 0-3-1.343-3-3 0-1.657 1.343-3 3-3h46c1.657 0 3 1.343 3 3 0 1.657-1.343 3-3 3z"/><path d="m32 37c-1.078 0-1.984-.807-2.11-1.877l-1.864-15.841c-.017-.148-.026-.299-.026-.448 0-2.114 1.72-3.834 3.834-3.834h.332c2.114 0 3.834 1.72 3.834 3.834 0 .149-.009.3-.026.449l-1.864 15.841c-.126 1.069-1.032 1.876-2.11 1.876z"/><path d="m32 45c-1.654 0-3-1.346-3-3s1.346-3 3-3 3 1.346 3 3-1.346 3-3 3z"/></g><path d="m55 47h-.559c-2.215-2.355-3.441-5.409-3.441-8.657v-10.343c0-8.592-6.412-15.696-14.699-16.826 1.049-1.081 1.699-2.552 1.699-4.174 0-3.309-2.691-6-6-6s-6 2.691-6 6c0 1.622.65 3.093 1.699 4.174-8.287 1.13-14.699 8.234-14.699 16.826v10.343c0 3.248-1.226 6.302-3.441 8.657h-.559c-2.206 0-4 1.794-4 4s1.794 4 4 4h14.059c.5 4.493 4.317 8 8.941 8s8.442-3.507 8.941-8h14.059c2.206 0 4-1.794 4-4s-1.794-4-4-4zm-23-44c2.206 0 4 1.794 4 4s-1.794 4-4 4-4-1.794-4-4 1.794-4 4-4zm-17 35.343v-10.343c0-8.271 6.729-15 15-15h4c8.271 0 15 6.729 15 15v10.343c0 3.16 1.008 6.159 2.848 8.657h-39.696c1.84-2.498 2.848-5.497 2.848-8.657zm17 22.657c-3.519 0-6.432-2.614-6.92-6h13.84c-.488 3.386-3.401 6-6.92 6zm23-8h-46c-1.103 0-2-.897-2-2s.897-2 2-2h46c1.103 0 2 .897 2 2s-.897 2-2 2z"/><path d="m17 38.343c0 2.179-.41 4.292-1.219 6.28l1.853.754c.906-2.23 1.366-4.596 1.366-7.034v-5.343h-2z"/><path d="m42.667 18.318-1.335 1.49c2.331 2.088 3.668 5.074 3.668 8.192v2h2v-2c0-3.686-1.579-7.215-4.333-9.682z"/><path d="m17 29h2v2h-2z"/><path d="m45 32h2v2h-2z"/><path d="m45 36h2v2h-2z"/><path d="m59 32c0-3.309-2.691-6-6-6v2c2.206 0 4 1.794 4 4s-1.794 4-4 4v2c3.309 0 6-2.691 6-6z"/><path d="m53 22v2c4.411 0 8 3.589 8 8s-3.589 8-8 8v2c5.514 0 10-4.486 10-10s-4.486-10-10-10z"/><path d="m11 28v-2c-3.309 0-6 2.691-6 6s2.691 6 6 6v-2c-2.206 0-4-1.794-4-4s1.794-4 4-4z"/><path d="m11 40c-4.411 0-8-3.589-8-8s3.589-8 8-8v-2c-5.514 0-10 4.486-10 10s4.486 10 10 10z"/></svg>